 Rock Legends The Best Of 50s 60s 70s from The Ed Sullivan Show vol.2       


Tracklist

01. The Doors - Light My Fire (1967)
02. Steppenwolf - Born To Be Wild / Magic Carpet Ride (1969)
03. The Temptations - Psychedelic Shack (1970)
04. Vanilla Fudge - You Keep Me Hanging On (1968)
05. The Beatles - Help (1967)
06. The Bee Gees - Words (1968)
07. The Byrds - Mr. Tambourine Man (1965)
08. Creedence Clearwater Revival - Good Golly Miss Molly (1969)
09. The Temptations - My Girl / (I Know) I'm Losing You (1967)
10. Young Rascals - Good Lovin' (1966)
11. The Turtles - Happy Together (1967)
12. Spanky & Our Gang - Sunday Will Never Be The Same (1967)
13. The 5th Dimension - Stoned Soul Picnic (1971)
14. Young Rascals - Groovin' (1967)
15. Oliver - Good Morning Starshine (1970)
16. The Beach Boys - Good Vibrations (1968)



DVD Features:
Menu: Ja
Available Audio Tracks : DD 2.0
Main Language: Engels
Disc Format: DVD 5
Cover : Nee

Spotinformatie 
Categorie : Beeld 
Formaat : DVD5 
Bron : Retail
 
Ondertitels : Geen
 
Genre : Muziek


Video
ID                               : 224 (0xE0)
Format                           : MPEG Video
Format version                   : Version 2
Format profile                   : Main@Main
Format settings, Matrix          : Default
Duration                         : 21mn 20s
Bit rate mode                    : Variable
Bit rate                         : 6 188 Kbps
Nominal bit rate                 : 8 000 Kbps
Width                            : 720 pixels
Height                           : 576 pixels
Display aspect ratio             : 4/3
Frame rate                       : 25.000 fps
Standard                         : PAL
Colorimetry                      : 4:2:0
Scan type                        : Interlaced
Scan order                       : Top Field First
Bits/(Pixel*Frame)               : 0.597
Stream size                      : 944 MiB (92%)

Audio
ID                               : 128 (0x80)
Format                           : AC-3
Format/Info                      : Audio Coding 3
Duration                         : 21mn 19s
Bit rate mode                    : Constant
Bit rate                         : 256 Kbps
Channel(s)                       : 2 channels
Channel positions                : L R
Sampling rate                    : 48.0 KHz
Stream size                      : 39.1 MiB (4%)

 
   
*****************************************

Brought to you by 
Pioen

2Lions Team

meer zien??
Kom dan eens kijken op ons forum 




2Lions the site to be for all your Dutch MOVIES and more

******************************************


DON T HIT AND RUN Niet gelijk afhaken als de FILM binnen is blijf seeden. 

Don`t quit after you finished the download, but keep seeding


There are fake torrents from uploaders who use our team name.
Those are not ours, or members from our team.
We 2Lions-Team are not responsible for the fake posts on our name

Wij 2Lions-Team zijn niet verantwoordelijk voor die zieke FAKE posten die op onze naam worden gedaan   

 
 
 
